<?xml version="1.0" encoding="utf-8"?>
<!-- Generator: Adobe Illustrator 26.2.0, SVG Export Plug-In . SVG Version: 6.00 Build 0)  -->
<svg version="1.1" id="Calque_1" xmlns="http://www.w3.org/2000/svg" xmlns:xlink="http://www.w3.org/1999/xlink" x="0px" y="0px"
	 viewBox="0 0 398 180.82" style="enable-background:new 0 0 398 180.82;" xml:space="preserve">
<style type="text/css">
	.st0{fill:#FFFFFF;}
</style>
<path class="st0" d="M0,33.82c0.45-1.93,0.98-3.84,1.35-5.78C4.24,12.93,15.59,2.71,32.6,1.13C43.19,0.14,53.89,0.18,64.53,0.2
	c14.15,0.03,28.36-0.25,42.43,0.93c20.39,1.7,32.2,14.42,32.61,34.83c0.49,24.15,0.11,48.32,0.22,72.48
	c0.01,3.2-1.06,4.56-4.32,4.45c-4.33-0.15-8.67-0.15-12.99,0c-3.28,0.11-4.36-1.29-4.31-4.47c0.13-8.83-0.09-17.66,0.1-26.49
	c0.08-3.74-0.95-5.37-5.03-5.35c-28.83,0.13-57.65,0.13-86.48,0c-4.12-0.02-5.07,1.7-5,5.4c0.18,8.66-0.08,17.33,0.11,25.99
	c0.08,3.67-1.17,5.1-4.88,4.95c-5.66-0.22-11.33-0.08-16.99-0.09C0,86.48,0,60.15,0,33.82z M69.48,56.91
	c14.15,0,28.3-0.21,42.44,0.11c5.17,0.12,6.79-1.62,6.37-6.59c-0.38-4.46,0.02-8.98-0.13-13.47c-0.25-8.06-4.09-13.91-11.95-14.12
	c-24.06-0.65-48.17-0.67-72.23,0.01c-7.9,0.22-11.75,5.99-12.09,14.05c-0.21,4.82,0.19,9.67-0.15,14.47
	c-0.32,4.53,1.56,5.68,5.8,5.62C41.52,56.78,55.5,56.91,69.48,56.91z"/>
<path class="st0" d="M398,112.82c-34.33,0.01-68.66,0.1-102.98-0.05c-5.61-0.03-11.34-0.61-16.81-1.85
	c-11.76-2.66-18.94-10.4-19.3-22.41c-0.62-21.13-0.99-42.33,0.05-63.42c0.72-14.52,9.09-21.76,23.7-23.92
	c4.11-0.61,8.29-0.97,12.44-0.98c31.99-0.08,63.99,0.03,95.98-0.13c4.45-0.02,6.5,1.08,6.06,5.83c-0.32,3.47-0.28,7.01-0.01,10.49
	c0.33,4.25-1.51,5.36-5.53,5.34c-25.33-0.14-50.66-0.07-75.99-0.07c-7.33,0-14.67-0.11-22,0.05c-9.76,0.22-13.24,3.63-13.34,13.37
	c-0.15,14.66-0.13,29.33-0.02,43.99c0.06,8.18,2.67,11.03,10.79,12.15c2.79,0.39,5.64,0.52,8.46,0.52
	c32.83,0.06,65.66,0.07,98.48,0.09C398,98.82,398,105.82,398,112.82z"/>
<path class="st0" d="M293,180.82c-9.85-9.58-19.7-19.16-30.21-29.37c0,8.28-0.12,16.16,0.06,24.02c0.08,3.35-1.25,4.3-4.41,4.27
	c-3.01-0.03-4.13-1.08-4.1-4.1c0.11-10.99-0.07-21.98,0.15-32.97c0.04-1.85,1.25-4.9,2.47-5.2c1.81-0.45,4.69,0.46,6.09,1.83
	c8.79,8.63,17.34,17.51,25.88,26.39c1.49,1.55,2.56,3.48,4.14,5.66c2.51-2.32,3.98-3.58,5.33-4.95c8.62-8.8,17.11-17.74,25.92-26.35
	c1.65-1.61,4.55-1.95,6.87-2.87c0.83,2.16,2.32,4.3,2.37,6.48c0.25,10.48,0.05,20.98,0.15,31.47c0.03,2.97-0.55,4.59-4.07,4.64
	c-3.71,0.05-4.47-1.54-4.4-4.81c0.16-7.63,0.05-15.27,0.05-24.47c-10.76,10.77-20.52,20.55-30.29,30.33
	C294.33,180.82,293.67,180.82,293,180.82z"/>
<path class="st0" d="M0,137.82c15.75,0.03,31.51-0.24,47.25,0.24c6,0.18,8.51,3.92,8.78,10.06c0.64,14.63-2.16,17.54-16.88,17.56
	c-8.31,0.01-16.62,0.18-24.92-0.07c-4.11-0.12-5.51,1.27-5.45,5.41c0.13,8.42-0.07,8.42-8.78,8.81C0,165.82,0,151.82,0,137.82z
	 M26.5,158.61c0-0.01,0-0.03,0-0.04c4.83,0,9.66,0.02,14.48-0.01c4.25-0.03,7.01-1.53,6.94-6.43c-0.07-5.16-1.37-6.94-6.78-7.06
	c-9.32-0.21-18.65-0.03-27.97-0.12c-3.2-0.03-4.59,1.32-4.33,4.51c0.12,1.49,0.14,3.01-0.01,4.49c-0.35,3.53,1.34,4.77,4.67,4.68
	C17.84,158.53,22.17,158.61,26.5,158.61z"/>
<path class="st0" d="M244.83,45.41c0,12.17,0.02,24.33,0,36.5c-0.04,19.39-8.74,29.68-28.04,30.45c-22.8,0.92-45.65,0.37-68.48,0.5
	c-2.73,0.02-3.96-1.04-3.89-3.83c0.1-4.16,0.2-8.34-0.04-12.5c-0.22-3.81,1.43-4.86,5.01-4.84c18,0.12,36,0.06,54,0.05
	c17.37-0.01,19.61-2.23,19.61-19.38c0-22,0.11-44-0.09-65.99c-0.04-4.64,1.05-6.84,6.07-6.29c5.06,0.55,11.82-1.17,14.76,1.49
	c2.58,2.33,1.02,9.37,1.06,14.33C244.89,25.74,244.83,35.57,244.83,45.41z"/>
<path class="st0" d="M225.36,164.94c7.5,4.98,14.01,9.3,21.69,14.4c-7.99,0.38-14.4,1.53-20.07-3.59
	c-3.81-3.43-8.29-6.12-12.55-9.04c-1.34-0.92-2.86-1.86-4.41-2.15c-8.87-1.66-10.12-0.45-10.29,8.79c-0.05,2.6,1.57,6.36-3.67,6.38
	c-3.35,0.02-4.79-0.87-4.73-4.48c0.18-11.15,0.17-22.31,0-33.45c-0.05-3.55,1.29-4.63,4.68-4.59c12.32,0.14,24.64-0.15,36.95,0.13
	c12.53,0.28,18.09,8.7,13.19,20.35c-1.08,2.56-4.52,4.85-7.36,5.76C234.99,164.68,230.74,164.43,225.36,164.94z M218.01,157.61
	c0,0.01,0,0.02,0,0.03c3.99,0,7.97,0,11.96,0c0.33,0,0.66,0,1-0.02c4.06-0.17,7.75-0.59,7.54-6.19c-0.19-5.01-1.44-6.33-7.75-6.43
	c-7.64-0.12-15.28-0.05-22.92-0.04c-8.53,0-8.52,0.13-8.11,8.66c0.15,3.15,1.61,4.01,4.34,4
	C208.71,157.59,213.36,157.61,218.01,157.61z"/>
<path class="st0" d="M127.14,162.64c0.01-3.99-0.1-7.99,0.03-11.97c0.23-6.83,3.92-12.05,10.56-12.44c11.4-0.67,22.9-0.68,34.3,0
	c6.67,0.4,10.43,5.46,10.65,12.41c0.26,8.47,0.01,16.96,0.14,25.44c0.05,2.98-1.37,3.65-3.97,3.63c-2.58-0.02-4.35-0.21-4.54-3.62
	c-0.58-10.23-0.72-10.22-10.95-10.22c-7.65,0-15.3,0.14-22.95-0.05c-3.85-0.1-5.6,1.28-5.26,5.19c0.13,1.48-0.06,2.99,0.01,4.49
	c0.14,2.85-0.89,4.23-4.01,4.24c-3.05,0.01-4.15-1.13-4.05-4.12C127.24,171.29,127.13,166.97,127.14,162.64z M154.9,158.91
	c0-0.01,0-0.01,0-0.02c5.14,0,10.29,0.14,15.42-0.1c1.33-0.06,3.38-1.06,3.77-2.11c2.31-6.26-0.72-11.18-7.37-11.49
	c-7.94-0.37-15.91-0.08-23.87-0.04c-0.82,0-1.65,0.2-2.45,0.41c-4.22,1.09-5.72,4.24-5.23,9.86c0.4,4.56,3.7,3.38,6.29,3.46
	C145.94,159.01,150.42,158.91,154.9,158.91z"/>
<path class="st0" d="M341.91,162.63c0.01-4-0.11-8,0.03-12c0.26-7.22,3.81-12.06,11.03-12.5c11.09-0.67,22.28-0.65,33.37,0.05
	c6.93,0.44,10.54,5.25,10.72,12.24c0.22,8.33,0,16.66,0.13,24.99c0.05,3.26-1.31,4.33-4.49,4.32c-3.48-0.01-3.59-2.02-3.61-4.56
	c-0.04-9.54,1.81-9.33-9.47-9.31c-8.17,0.02-16.33,0.13-24.5-0.05c-3.76-0.08-5.72,1.04-5.27,5.11c0.17,1.48-0.06,3,0.03,4.5
	c0.18,2.78-0.59,4.35-3.85,4.31c-3-0.04-4.24-1.11-4.17-4.1C341.99,171.29,341.91,166.96,341.91,162.63z M369.02,158.91
	c0-0.01,0-0.01,0-0.02c5.32,0,10.64,0.14,15.94-0.09c1.35-0.06,3.44-0.98,3.86-2.03c2.39-6.03-0.77-11.2-7.36-11.53
	c-7.95-0.4-15.93-0.1-23.9-0.07c-0.82,0-1.65,0.2-2.45,0.4c-4.3,1.08-5.62,3.91-5.25,9.81c0.3,4.69,3.67,3.39,6.21,3.49
	C360.38,159.03,364.7,158.91,369.02,158.91z"/>
<path class="st0" d="M118.14,158.35c0,5.66-0.09,11.32,0.04,16.97c0.07,3.17-1.12,4.42-4.39,4.41c-3.38-0.02-3.75-1.84-3.7-4.47
	c0.07-4.32-0.06-8.65,0.01-12.98c0.04-2.75-1.16-3.87-3.9-3.85c-10.48,0.07-20.97,0.09-31.45-0.01c-3.14-0.03-4.01,1.45-3.94,4.29
	c0.11,4.49-0.1,8.99,0.04,13.48c0.09,3.09-1.61,3.52-4.1,3.5c-2.4-0.01-4.3-0.21-4.28-3.35c0.06-11.98,0.04-23.96,0.03-35.94
	c0-3.25,2.35-3.55,4.45-3c1.46,0.38,2.59,2.02,3.85,3.12c0.08,0.07,0.01,0.32,0.02,0.49c0.67,10.08,0.67,10.08,11.09,10.08
	c7.65,0,15.31-0.15,22.96,0.06c3.81,0.11,5.68-1.07,5.25-5.07c-0.14-1.32,0.08-2.67-0.03-3.99c-0.27-3.16,0.5-4.94,4.29-4.93
	c3.72,0,3.91,1.88,3.83,4.72c-0.15,5.49-0.04,10.98-0.04,16.47C118.16,158.35,118.15,158.35,118.14,158.35z"/>
</svg>
