<?xml version="1.0" encoding="utf-8"?>
<!-- Generator: Adobe Illustrator 27.9.1, SVG Export Plug-In . SVG Version: 6.00 Build 0)  -->
<svg version="1.1" xmlns="http://www.w3.org/2000/svg" xmlns:xlink="http://www.w3.org/1999/xlink" x="0px" y="0px"
	 viewBox="0 0 398 180.8" style="enable-background:new 0 0 398 180.8;" xml:space="preserve">
<style type="text/css">
	.st0{display:none;}
	.st1{display:inline;fill:#25D0A8;}
	.st2{fill:#FFFFFF;}
</style>
<g id="Calque_1" class="st0">
	<path class="st1" d="M0,33.8C0.4,31.9,1,30,1.4,28C4.2,12.9,15.6,2.7,32.6,1.1c10.6-1,21.3-0.9,31.9-0.9c14.2,0,28.4-0.2,42.4,0.9
		c20.4,1.7,32.2,14.4,32.6,34.8c0.5,24.1,0.1,48.3,0.2,72.5c0,3.2-1.1,4.6-4.3,4.4c-4.3-0.2-8.7-0.2-13,0c-3.3,0.1-4.4-1.3-4.3-4.5
		c0.1-8.8-0.1-17.7,0.1-26.5c0.1-3.7-0.9-5.4-5-5.3c-28.8,0.1-57.7,0.1-86.5,0c-4.1,0-5.1,1.7-5,5.4c0.2,8.7-0.1,17.3,0.1,26
		c0.1,3.7-1.2,5.1-4.9,4.9c-5.7-0.2-11.3-0.1-17-0.1C0,86.5,0,60.1,0,33.8z M69.5,56.9c14.2,0,28.3-0.2,42.4,0.1
		c5.2,0.1,6.8-1.6,6.4-6.6c-0.4-4.5,0-9-0.1-13.5c-0.2-8.1-4.1-13.9-11.9-14.1c-24.1-0.6-48.2-0.7-72.2,0c-7.9,0.2-11.8,6-12.1,14.1
		c-0.2,4.8,0.2,9.7-0.1,14.5c-0.3,4.5,1.6,5.7,5.8,5.6C41.5,56.8,55.5,56.9,69.5,56.9z"/>
	<path class="st1" d="M398,112.8c-34.3,0-68.7,0.1-103-0.1c-5.6,0-11.3-0.6-16.8-1.8c-11.8-2.7-18.9-10.4-19.3-22.4
		c-0.6-21.1-1-42.3,0-63.4c0.7-14.5,9.1-21.8,23.7-23.9c4.1-0.6,8.3-1,12.4-1c32-0.1,64,0,96-0.1c4.5,0,6.5,1.1,6.1,5.8
		c-0.3,3.5-0.3,7,0,10.5c0.3,4.2-1.5,5.4-5.5,5.3c-25.3-0.1-50.7-0.1-76-0.1c-7.3,0-14.7-0.1-22,0c-9.8,0.2-13.2,3.6-13.3,13.4
		c-0.1,14.7-0.1,29.3,0,44c0.1,8.2,2.7,11,10.8,12.2c2.8,0.4,5.6,0.5,8.5,0.5c32.8,0.1,65.7,0.1,98.5,0.1
		C398,98.8,398,105.8,398,112.8z"/>
	<path class="st1" d="M293.1,171.3c2.5-2.3,4-3.6,5.3-4.9c8.6-8.8,17.1-17.7,25.9-26.4c0.3-0.3,0.7-0.6,1-0.8
		c3.3-1.9,7.7,0.1,8.2,3.8c0,0.2,0,0.4,0.1,0.5c0.2,10.5,0,21,0.1,31.5c0,3-0.5,4.6-4.1,4.6c-3.7,0.1-4.5-1.5-4.4-4.8
		c0.2-7.6,0-15.3,0-24.5c-10.8,10.8-20.5,20.6-30.3,30.3c-0.6,0.1-1.2,0.1-1.9,0.1c-9.9-9.6-19.7-19.2-30.2-29.4
		c0,8.3-0.1,16.2,0.1,24c0.1,3.4-1.2,4.3-4.4,4.3c-3,0-4.1-1.1-4.1-4.1c0.1-11-0.1-22,0.1-33c0-1.9,1.2-4.9,2.5-5.2
		c1.8-0.4,4.1-0.8,6.1,1.8"/>
	<path class="st1" d="M0,137.8c15.8,0,31.5-0.2,47.2,0.2c6,0.2,8.5,3.9,8.8,10.1c0.6,14.6-2.2,17.5-16.9,17.6
		c-8.3,0-16.6,0.2-24.9-0.1c-4.1-0.1-5.5,1.3-5.4,5.4c0,10.8-1.1,9.7-8.8,9.8C0,166.8,0,151.8,0,137.8z M26.5,158.6L26.5,158.6
		c4.8,0,9.7,0,14.5,0c4.2,0,7-1.5,6.9-6.4c-0.1-5.2-1.4-6.9-6.8-7.1c-9.3-0.2-18.6,0-28-0.1c-3.2,0-4.6,1.3-4.3,4.5
		c0.1,1.5,0.1,3,0,4.5c-0.4,3.5,1.3,4.8,4.7,4.7C17.8,158.5,22.2,158.6,26.5,158.6z"/>
	<path class="st1" d="M244.8,45.4c0,12.2,0,24.3,0,36.5c0,19.4-8.7,29.7-28,30.4c-22.8,0.9-45.6,0.4-68.5,0.5c-2.7,0-4-1-3.9-3.8
		c0.1-4.2,0.2-8.3,0-12.5c-0.2-3.8,1.4-4.9,5-4.8c18,0.1,36,0.1,54,0.1c17.4,0,19.6-2.2,19.6-19.4c0-22,0.1-44-0.1-66
		c0-4.6,1.1-6.8,6.1-6.3c5.1,0.6,11.8-1.2,14.8,1.5c2.6,2.3,1,9.4,1.1,14.3C244.9,25.7,244.8,35.6,244.8,45.4z"/>
	<path class="st1" d="M225.4,164.9c7.5,5,14,9.3,21.7,14.4c-8,0.4-14.4,1.5-20.1-3.6c-3.8-3.4-8.3-6.1-12.6-9
		c-1.3-0.9-2.9-1.9-4.4-2.1c-8.9-1.7-10.1-0.4-10.3,8.8c-0.1,2.6,1.6,6.4-3.7,6.4c-3.4,0-4.8-0.9-4.7-4.5c0.2-11.1,0.2-22.3,0-33.4
		c-0.1-3.6,1.3-4.6,4.7-4.6c12.3,0.1,24.6-0.1,36.9,0.1c12.5,0.3,18.1,8.7,13.2,20.4c-1.1,2.6-4.5,4.9-7.4,5.8
		C235,164.7,230.7,164.4,225.4,164.9z M218,157.6L218,157.6c4,0,8,0,12,0c0.3,0,0.7,0,1,0c4.1-0.2,7.8-0.6,7.5-6.2
		c-0.2-5-1.4-6.3-7.8-6.4c-7.6-0.1-15.3-0.1-22.9,0c-8.5,0-8.5,0.1-8.1,8.7c0.1,3.1,1.6,4,4.3,4C208.7,157.6,213.4,157.6,218,157.6z
		"/>
	<path class="st1" d="M127.1,162.6c0-4-0.1-8,0-12c0.2-6.8,3.9-12.1,10.6-12.4c11.4-0.7,22.9-0.7,34.3,0c6.7,0.4,10.4,5.5,10.6,12.4
		c0.3,8.5,0,17,0.1,25.4c0.1,3-1.4,3.6-4,3.6s-4.4-0.2-4.5-3.6c-0.6-10.2-0.7-10.2-10.9-10.2c-7.6,0-15.3,0.1-22.9-0.1
		c-3.9-0.1-5.6,1.3-5.3,5.2c0.1,1.5-0.1,3,0,4.5c0.1,2.9-0.9,4.2-4,4.2s-4.2-1.1-4.1-4.1C127.2,171.3,127.1,167,127.1,162.6z
		 M154.9,158.9L154.9,158.9c5.1,0,10.3,0.1,15.4-0.1c1.3-0.1,3.4-1.1,3.8-2.1c2.3-6.3-0.7-11.2-7.4-11.5c-7.9-0.4-15.9-0.1-23.9,0
		c-0.8,0-1.6,0.2-2.4,0.4c-4.2,1.1-5.7,4.2-5.2,9.9c0.4,4.6,3.7,3.4,6.3,3.5C145.9,159,150.4,158.9,154.9,158.9z"/>
	<path class="st1" d="M341.9,162.6c0-4-0.1-8,0-12c0.3-7.2,3.8-12.1,11-12.5c11.1-0.7,22.3-0.6,33.4,0.1c6.9,0.4,10.5,5.2,10.7,12.2
		c0.2,8.3,0,16.7,0.1,25c0,3.3-1.3,4.3-4.5,4.3c-3.5,0-3.6-2-3.6-4.6c0-9.5,1.8-9.3-9.5-9.3c-8.2,0-16.3,0.1-24.5-0.1
		c-3.8-0.1-5.7,1-5.3,5.1c0.2,1.5-0.1,3,0,4.5c0.2,2.8-0.6,4.4-3.9,4.3c-3,0-4.2-1.1-4.2-4.1C342,171.3,341.9,167,341.9,162.6z
		 M369,158.9L369,158.9c5.3,0,10.6,0.1,15.9-0.1c1.4-0.1,3.4-1,3.9-2c2.4-6-0.8-11.2-7.4-11.5c-8-0.4-15.9-0.1-23.9-0.1
		c-0.8,0-1.6,0.2-2.5,0.4c-4.3,1.1-5.6,3.9-5.2,9.8c0.3,4.7,3.7,3.4,6.2,3.5C360.4,159,364.7,158.9,369,158.9z"/>
	<path class="st1" d="M118.1,158.3c0,5.7-0.1,11.3,0,17c0.1,3.2-1.1,4.4-4.4,4.4c-3.4,0-3.8-1.8-3.7-4.5c0.1-4.3-0.1-8.6,0-13
		c0-2.8-1.2-3.9-3.9-3.9c-10.5,0.1-21,0.1-31.5,0c-3.1,0-4,1.4-3.9,4.3c0.1,4.5-0.1,9,0,13.5c0.1,3.1-1.6,3.5-4.1,3.5
		c-2.4,0-4.3-0.2-4.3-3.4c0.1-12,0-24,0-35.9c0-3.2,2.3-3.6,4.4-3c1.5,0.4,2.1,0.4,3.3,1.5c0.5,0.6,0.5,1.9,0.5,2.1
		C71.2,151,71.2,151,81.6,151c7.7,0,15.3-0.1,23,0.1c3.8,0.1,5.7-1.1,5.2-5.1c-0.1-1.3,0.1-2.7,0-4c-0.3-3.2,0.5-4.9,4.3-4.9
		c3.7,0,3.9,1.9,3.8,4.7C118.1,147.4,118.2,152.9,118.1,158.3C118.2,158.3,118.2,158.3,118.1,158.3z"/>
</g>
<g id="Calque_2">
	<g>
		<path class="st2" d="M150.4,91.6h59.8c7.2,0,13.1-5.9,13.1-13.1V6.4c0-3.4,2.8-6.2,6.2-6.2h8.9c3.4,0,6.2,2.8,6.2,6.2v75.9
			c0,16.9-13.7,30.6-30.6,30.6h-63.8c-3.5,0-6.3-2.9-6.2-6.4l0.2-8.8C144.3,94.3,147.1,91.6,150.4,91.6z"/>
		<path class="st2" d="M283.7,0h110.3c2.2,0,4.1,1.8,4.1,4.1v13.5c0,2.2-1.8,4.1-4.1,4.1h-104c-5.3,0-9.7,4.3-9.7,9.7v50.9
			c0,5.3,4.3,9.7,9.7,9.7h104c2.2,0,4.1,1.8,4.1,4.1v12.9c0,2.2-1.8,4.1-4.1,4.1H283.7c-14,0-25.3-11.3-25.3-25.3V25.3
			C258.3,11.3,269.7,0,283.7,0z"/>
		<path class="st2" d="M0,139.5v39.6c0,0.9,0.8,1.7,1.7,1.7h5.6c0.9,0,1.7-0.8,1.7-1.7v-10.7c0-1.5,1.2-2.6,2.6-2.6h35.5
			c4.9,0,8.9-4,8.9-8.9v-10.2c0-4.9-4-8.9-8.9-8.9H1.7C0.8,137.8,0,138.5,0,139.5z M42.7,159.6l-31-0.1c-1.5,0-2.6-2.1-2.6-3.6v-8.3
			c0-1.5,1.2-1.8,2.6-1.8h31c2.6,0,4.7,1.2,4.7,3.8v4.2C47.3,156.5,45.3,159.6,42.7,159.6z"/>
		<path class="st2" d="M62.3,178.8v-39c0-1.1,0.9-2,2-2h4.2c1.1,0,2,0.9,2,2v6.8c0,2.6,2.1,4.8,4.8,4.8h29.5c2.6,0,4.8-2.1,4.8-4.8
			v-6.8c0-1.1,0.9-2,2-2h4.2c1.1,0,2,0.9,2,2v39c0,1.1-0.9,2-2,2h-4.2c-1.1,0-2-0.9-2-2v-14.5c0-3.6-2.9-6.6-6.6-6.6H77.1
			c-3.6,0-6.6,2.9-6.6,6.6v14.5c0,1.1-0.9,2-2,2h-4.2C63.2,180.8,62.3,179.9,62.3,178.8z"/>
		<path class="st2" d="M127.2,142.9v33.4c0,2.5,2,4.5,4.5,4.5h1c1.5,0,2.7-1.2,2.7-2.7v-8.8c0-1.9,1.5-3.4,3.4-3.4h32.3
			c1.9,0,3.4,1.5,3.4,3.4v8.8c0,1.5,1.2,2.7,2.7,2.7h1c2.5,0,4.5-2,4.5-4.5v-33.4c0-2.8-2.3-5.2-5.2-5.2h-45.3
			C129.5,137.8,127.2,140.1,127.2,142.9z M171.1,159.5h-32.3c-1.9,0-3.4-1.5-3.4-3.4v-4.5c0-3.2,2.6-5.8,5.8-5.8h27.6
			c3.2,0,5.8,2.6,5.8,5.8v4.5C174.5,158,173,159.5,171.1,159.5z"/>
		<path class="st2" d="M342.4,142.9v33.4c0,2.5,2,4.5,4.5,4.5h1c1.5,0,2.7-1.2,2.7-2.7v-8.8c0-1.9,1.5-3.4,3.4-3.4h32.3
			c1.9,0,3.4,1.5,3.4,3.4v8.8c0,1.5,1.2,2.7,2.7,2.7h1c2.5,0,4.5-2,4.5-4.5v-33.4c0-2.8-2.3-5.2-5.2-5.2h-45.3
			C344.7,137.8,342.4,140.1,342.4,142.9z M386.4,159.5H354c-1.9,0-3.4-1.5-3.4-3.4v-4.5c0-3.2,2.6-5.8,5.8-5.8H384
			c3.2,0,5.8,2.6,5.8,5.8v4.5C389.8,158,388.3,159.5,386.4,159.5z"/>
		<path class="st2" d="M0.4,13.6v86.7c0,6.5,5,11.7,11.2,11.7h2.6c3.7,0,6.7-3.1,6.7-7V82.1c0-4.9,3.8-8.8,8.5-8.8H110
			c4.7,0,8.5,3.9,8.5,8.8V105c0,3.8,3,7,6.7,7h2.6c6.2,0,11.2-5.2,11.2-11.7V13.6c0-7.4-5.8-13.4-12.9-13.4H13.2
			C6.1,0.2,0.4,6.2,0.4,13.6z M110,56.7H29.4c-4.7,0-8.5-3.9-8.5-8.8V36.3c0-8.3,6.4-15,14.4-15h68.8c7.9,0,14.4,6.7,14.4,15v11.6
			C118.5,52.8,114.7,56.7,110,56.7z"/>
		<path class="st2" d="M230.7,165.9h9.3c3.7,0,6.7-3,6.7-6.7v-17.3c0-2.2-1.8-4.1-4.1-4.1h-47.3c-2.2,0-4.1,1.8-4.1,4.1v36.6
			c0,1.3,1,2.3,2.3,2.3h3.6c1.3,0,2.3-1,2.3-2.3v-8.6c0-2.2,1.8-4,4-4h7.2c2.1,0,4.1,0.6,5.9,1.8l17.3,12.1c0.9,0.6,1.9,0.9,3,0.9
			h9.5c1,0,1.4-1.3,0.6-1.9l-16.6-11.6C229.7,166.9,230,165.9,230.7,165.9z M199.6,154.8v-4.9c0-2.2,1.8-4,4-4h30.9c2.2,0,4,1.8,4,4
			v4.7c0,2.6-2.1,4.7-4.7,4.7l-29.5,0.2C201.7,159.5,199.6,157.4,199.6,154.8z"/>
		<path class="st2" d="M255.1,177.1v-34.2c0-2.8,2.3-5.1,5.1-5.1h0.1c1.9,0,3.7,0.8,5,2.1l24.1,25.4c2.4,2.5,6.3,2.5,8.7,0.1
			l25.6-25.6c1.3-1.3,3-2,4.8-2l0,0c2.8,0,5.1,2.3,5.1,5.1v34.2c0,2.1-1.7,3.7-3.7,3.7h-0.9c-2,0-3.6-1.6-3.6-3.6v-23.3
			c0-1.5-1.9-2.3-2.9-1.2l-26,26c-1.2,1.2-3.1,1.2-4.2,0l-26-26c-1.1-1.1-2.9-0.3-2.9,1.2v23.3c0,2-1.6,3.6-3.6,3.6l-0.9,0
			C256.8,180.8,255.1,179.1,255.1,177.1z"/>
	</g>
</g>
</svg>
