<?xml version="1.0" encoding="utf-8"?>
<!-- Generator: Adobe Illustrator 26.0.2, SVG Export Plug-In . SVG Version: 6.00 Build 0)  -->
<svg version="1.1" id="Calque_1" xmlns="http://www.w3.org/2000/svg" xmlns:xlink="http://www.w3.org/1999/xlink" x="0px" y="0px"
	 viewBox="0 0 5361 135.2" style="enable-background:new 0 0 5361 135.2;" xml:space="preserve">
<style type="text/css">
	.st0{fill:none;stroke:#4FB89E;stroke-miterlimit:10;}
</style>
<g>
	<g>
		<g>
			<path class="st0" d="M661.7,229.5c185.6,0.1,371.3,0,556.9-0.1c165.4-0.1,336.8,3.3,501.3-1.1c306.3-8.2,573-58.5,884.5-59.9
				c273.2-1.2,530.4,28,801.5,31.8c176.5,2.4,349.8,5,525.4,11c220.4,7.6,440.2,16.7,662.8,18.3"/>
		</g>
		<g>
			<path class="st0" d="M771.8,185.8c413-1.6,823.9-14.9,1237-17.1c192.5-1,379.6-13.1,573-11.7c389,2.9,746.9,54.4,1131.2,65.8
				c116.4,3.4,235,1.3,342.7-11.2c90.8-10.6,157.5-15.1,260-13.2"/>
		</g>
		<g>
			<path class="st0" d="M835,157.7c425.1-0.4,841.5-29.7,1267.1-28.5c84.8,0.2,154.5,4.9,232.5,12.6c86,8.5,166.6,8.8,257.9,9.6
				c432.6,3.4,833.3,65.2,1259.6,80.5c75.9,2.7,236.5,8.5,246.6-20.2c6.6-18.7-38.5-39,85.3-31.5"/>
		</g>
		<g>
			<path class="st0" d="M835,150.8c302-1.6,542-58.8,851.6-49.9c406,11.7,757.8,82.9,1170.8,85.4c210.3,1.3,402.7,23.6,611,26.8
				c348.4,5.3,693.2-15.3,1041.9-11.5"/>
		</g>
		<g>
			<path class="st0" d="M801.5,155.2c154.2-2.3,271.8-15.5,408.3-32.6c117.7-14.7,245.7-22.8,376.6-18.3
				c238.1,8.3,471,29.4,701,46.7c194.1,14.6,397.4,32.9,600.6,35.7c264.8,3.7,526.4,17.4,791.1,19.8c305.1,2.8,611-4.3,916.2-4.5"/>
		</g>
		<g>
			<path class="st0" d="M672.5,191.5c185.2,1.5,369.8,8.8,555.2,5.7c267.6-4.5,534.9-10.6,802.2-16.3c235.4-5,473.8-12.9,710.1-13.8
				c215.5-0.8,435.9,11.1,648,19.6c237.5,9.5,476.1,20.8,716.2,24.8c86.5,1.4,192.4,4,274.4-5.5c74.2-8.5,131.6-10.4,216.6-10.8"/>
		</g>
		<g>
			<path class="st0" d="M661.3,188.4c239.8,0.2,481.1,9.4,720.1,7.7c353.8-2.5,695.6-35.2,1050-35.2
				c487.8,0.1,973.2,30.1,1459.6,37.9c111.8,1.8,230.1,3.1,338.8-5.1c91.5-7,172.4-9.7,269.5-10"/>
		</g>
	</g>
</g>
</svg>
